<mxfile host="app.diagrams.net" modified="2023-10-15T14:56:08.937Z" agent="Mozilla/5.0 (Windows NT 10.0; Win64; x64) AppleWebKit/537.36 (KHTML, like Gecko) Chrome/117.0.0.0 Safari/537.36" version="22.0.4" etag="tb7rE-Gw8rwqmV9Tj1__" type="github">
  <diagram name="第 1 页" id="5KfrswsYcvaIRbyJmsyh">
    <mxGraphModel>
      <root>
        <mxCell id="0" />
        <mxCell id="1" parent="0" />
      </root>
    </mxGraphModel>
  </diagram>
</mxfile>
